<?xml version="1.0" ?><svg id="Layer_1" style="enable-background:new 0 0 64 64;" version="1.1" viewBox="0 0 64 64" xml:space="preserve" xmlns="http://www.w3.org/2000/svg" xmlns:xlink="http://www.w3.org/1999/xlink"><g><path d="M63.69172,44.81383c-0.62661-1.75697-1.91092-3.12349-3.61652-3.87351s-3.5858-0.7603-5.30169-0.03085L43.2661,45.76935   c0.01028-0.13358,0.02057-0.28772,0.02057-0.43158c0-2.23984-1.81861-4.05838-4.05851-4.05838h-8.30176   c-0.33914,0-0.66787-0.07193-0.97603-0.21579l-7.03815-3.17485c-1.09932-0.50344-2.32205-0.77059-3.53437-0.77059h-5.95927   v-0.57537c0-1.13017-0.91432-2.0549-2.0549-2.0549H0v25.93287h11.36368c1.14058,0,2.0549-0.92467,2.0549-2.0549v-1.61304h3.29808   l12.27812,3.94538c1.01717,0.31851,2.06519,0.48294,3.12337,0.48294c1.66459,0,3.32893-0.40072,4.80853-1.19188L64,45.64606   L63.69172,44.81383z M7.22301,56.60895c-0.79116,0-1.43833-0.6473-1.43833-1.43846c0-0.80138,0.64717-1.44868,1.43833-1.44868   s1.43846,0.6473,1.43846,1.44868C8.66147,55.96165,8.01417,56.60895,7.22301,56.60895z M35.97109,58.1707   c-1.94178,1.03767-4.25354,1.23289-6.34958,0.56508l-12.43214-3.9968l-3.77079-0.04108V39.17307h5.95927   c0.92461,0,1.84946,0.2055,2.68163,0.58566l7.03802,3.18514c0.57543,0.25686,1.19188,0.39043,1.82889,0.39043h8.30176   c1.1096,0,2.0036,0.9041,2.0036,2.00348c0,1.10966-0.894,2.00354-2.0036,2.00354h-10.7471v2.0549h10.7471   c0.75014,0,1.44874-0.19522,2.04474-0.5548L55.57495,42.8c1.19175-0.50344,2.49664-0.49316,3.67836,0.02057   c0.90404,0.40066,1.64377,1.05824,2.13693,1.89048L35.97109,58.1707z"/><path d="M9.30727,30.34497l6.39875-3.54516l6.26605,3.77493l-1.39431-7.18112l4.59757-3.98721l-1.69745,7.31326   c-0.09231,0.39533,0.05719,0.80771,0.38128,1.05254c0.32509,0.24482,0.76156,0.27542,1.11675,0.07826l7.1129-3.93973   l6.96339,4.19509c0.33587,0.20422,0.7768,0.20085,1.11876-0.03813c0.33212-0.23228,0.49667-0.63915,0.41941-1.03749   l-1.54921-7.98131l0.14624-0.12686l4.60622,4.29712l-1.65393,7.12581l6.39875-3.54516l6.26593,3.77493l-1.39418-7.18112   l5.52631-4.79279l-7.26039-0.893l-2.85057-6.73701l-3.09289,6.62914l-5.57573,0.4813l5.02689-4.35927   c0.30703-0.26589,0.42744-0.68731,0.30904-1.07561c-0.1184-0.3883-0.45353-0.67075-0.85688-0.72042l-8.07011-0.99233   L33.3982,3.44598c-0.15853-0.37376-0.52175-0.61958-0.92712-0.62711c-0.00702,0-0.01304,0-0.01906,0   c-0.39834,0-0.76256,0.23078-0.93113,0.59299l-3.43755,7.36775l-8.10021,0.69935c-0.88109,0.07543-1.26465,1.16423-0.61306,1.77496   l5.58025,5.20499l-6.10664-0.75109l-2.85045-6.73701l-3.09289,6.62914L5.6121,18.22908l5.34897,4.99008L9.30727,30.34497z    M28.85192,12.77583c0.36623-0.03161,0.68731-0.25586,0.84283-0.58898l2.71111-5.81203l2.49939,5.90634   c0.14348,0.33864,0.45654,0.57443,0.82076,0.61958l6.36538,0.78263l-4.84528,4.20212   c-0.27794,0.24081-0.40536,0.61105-0.33512,0.97176l1.2221,6.29615l-5.49345-3.30912   c-0.31649-0.19146-0.71086-0.19536-1.02745-0.01856l-5.61085,3.10794l1.44987-6.24749   c0.08328-0.3577-0.03111-0.73296-0.29901-0.9838l-4.69076-4.3752L28.85192,12.77583z"/></g></svg>